<?xml version="1.0" standalone="no"?>
<!DOCTYPE svg PUBLIC "-//W3C//DTD SVG 20010904//EN"
 "http://www.w3.org/TR/2001/REC-SVG-20010904/DTD/svg10.dtd">
<svg version="1.0" xmlns="http://www.w3.org/2000/svg"
 width="179.000000pt" height="179.000000pt" viewBox="0 0 179.000000 179.000000"
 preserveAspectRatio="xMidYMid meet">
<metadata>
Created by potrace 1.11, written by Peter Selinger 2001-2013
</metadata>
<g transform="translate(0.000000,179.000000) scale(0.100000,-0.100000)"
fill="#000000" stroke="none">
<path d="M1044 1755 c-63 -27 -107 -115 -108 -217 l-1 -66 -62 -7 c-35 -4 -66
-7 -70 -8 -4 -1 -9 16 -11 38 -5 49 -42 130 -77 167 -82 88 -183 62 -201 -51
-10 -62 10 -156 42 -203 l27 -39 -24 -17 c-101 -70 -184 -192 -205 -297 -15
-80 -12 -76 -62 -73 l-47 3 0 -433 c0 -239 2 -437 5 -440 3 -4 10 -8 15 -8 6
-1 30 -5 55 -8 25 -3 54 -8 65 -10 11 -2 43 -7 70 -10 28 -4 61 -9 75 -11 64
-9 117 -18 135 -21 11 -3 38 -6 60 -9 22 -2 58 -7 80 -11 22 -3 46 -7 54 -8 8
-2 37 1 65 6 28 4 69 10 91 13 22 3 51 8 65 10 35 7 70 12 195 30 61 8 128 18
150 21 22 4 46 7 53 7 6 0 13 5 13 11 1 6 2 207 3 447 l1 436 37 41 c57 63 76
175 43 246 -43 90 -179 151 -380 171 -5 0 -8 7 -6 15 11 41 12 146 1 184 -23
84 -85 127 -146 101z"/>
</g>
</svg>
