<?xml version="1.0" standalone="no"?>
<!DOCTYPE svg PUBLIC "-//W3C//DTD SVG 20010904//EN"
 "http://www.w3.org/TR/2001/REC-SVG-20010904/DTD/svg10.dtd">
<svg version="1.0" xmlns="http://www.w3.org/2000/svg"
 width="216.000000pt" height="216.000000pt" viewBox="0 0 216.000000 216.000000"
 preserveAspectRatio="xMidYMid meet">
<metadata>
Created by potrace 1.11, written by Peter Selinger 2001-2013
</metadata>
<g transform="translate(0.000000,216.000000) scale(0.100000,-0.100000)"
fill="#000000" stroke="none">
<path d="M1245 1996 c-64 -28 -108 -115 -109 -218 l-1 -66 -62 -7 c-35 -4 -66
-6 -70 -6 -3 0 -8 18 -10 38 -10 97 -96 207 -170 219 -111 17 -153 -180 -66
-309 l26 -38 -24 -16 c-49 -32 -136 -132 -161 -184 -15 -30 -33 -78 -42 -107
-16 -55 -16 -56 -16 -73 0 -6 -19 -9 -47 -7 l-48 3 0 -433 c0 -239 2 -437 5
-442 3 -4 30 -11 61 -14 31 -4 66 -8 76 -10 11 -3 44 -7 73 -11 29 -4 62 -8
73 -11 11 -2 55 -8 97 -14 42 -6 86 -12 97 -14 11 -3 44 -7 74 -11 30 -4 56
-8 59 -10 3 -2 26 0 50 5 40 7 79 13 175 26 30 4 216 32 265 40 14 2 50 6 82
10 40 5 57 11 60 23 2 9 4 211 3 448 l0 433 31 30 c87 81 83 256 -7 328 -39
32 -158 72 -254 87 -61 9 -79 15 -75 26 3 8 5 55 4 104 0 65 -5 99 -17 122
-30 56 -84 80 -132 59z"/>
</g>
</svg>
